<svg width="25" height="25" viewBox="0 0 25 25" fill="none" xmlns="http://www.w3.org/2000/svg">
<path fill-rule="evenodd" clip-rule="evenodd" d="M21.5 12.5C21.5 13.6819 21.2672 14.8522 20.8149 15.9442C20.3626 17.0361 19.6997 18.0282 18.864 18.864C18.0282 19.6997 17.0361 20.3626 15.9442 20.8149C14.8522 21.2672 13.6819 21.5 12.5 21.5C11.3181 21.5 10.1478 21.2672 9.05585 20.8149C7.96392 20.3626 6.97177 19.6997 6.13604 18.864C5.30031 18.0282 4.63738 17.0361 4.18508 15.9442C3.73279 14.8522 3.5 13.6819 3.5 12.5C3.5 10.1131 4.44821 7.82387 6.13604 6.13604C7.82387 4.44821 10.1131 3.5 12.5 3.5C14.8869 3.5 17.1761 4.44821 18.864 6.13604C20.5518 7.82387 21.5 10.1131 21.5 12.5ZM13 12.293V7.47C13 7.33739 12.9473 7.21021 12.8536 7.11645C12.7598 7.02268 12.6326 6.97 12.5 6.97C12.3674 6.97 12.2402 7.02268 12.1464 7.11645C12.0527 7.21021 12 7.33739 12 7.47V12.485C11.9979 12.5532 12.0097 12.6211 12.0348 12.6846C12.0599 12.7481 12.0978 12.8057 12.146 12.854L14.975 15.682C15.0211 15.7298 15.0763 15.7678 15.1373 15.7941C15.1983 15.8203 15.2639 15.834 15.3303 15.8346C15.3967 15.8352 15.4625 15.8226 15.524 15.7974C15.5854 15.7723 15.6413 15.7351 15.6882 15.6882C15.7351 15.6413 15.7723 15.5854 15.7974 15.524C15.8226 15.4625 15.8352 15.3967 15.8346 15.3303C15.834 15.2639 15.8203 15.1983 15.7941 15.1373C15.7678 15.0763 15.7298 15.0211 15.682 14.975L13 12.293Z" fill="#581728"/>
</svg>
